<?xml version="1.0" encoding="UTF-8" standalone="no"?>
<svg
   viewBox="0 0 64 64"
   version="1.1"
   id="svg1"
   sodipodi:docname="logo.svg"
   width="64"
   height="64"
   inkscape:export-filename="leaf-solid.png"
   inkscape:export-xdpi="96"
   inkscape:export-ydpi="96"
   inkscape:version="1.3.2 (091e20e, 2023-11-25, custom)"
   xmlns:inkscape="http://www.inkscape.org/namespaces/inkscape"
   xmlns:sodipodi="http://sodipodi.sourceforge.net/DTD/sodipodi-0.dtd"
   xmlns="http://www.w3.org/2000/svg"
   xmlns:svg="http://www.w3.org/2000/svg">
  <defs
     id="defs1" />
  <sodipodi:namedview
     id="namedview1"
     pagecolor="#ffffff"
     bordercolor="#000000"
     borderopacity="0.25"
     inkscape:showpageshadow="2"
     inkscape:pageopacity="0.0"
     inkscape:pagecheckerboard="0"
     inkscape:deskcolor="#d1d1d1"
     inkscape:zoom="1.2519531"
     inkscape:cx="49.123245"
     inkscape:cy="60.305772"
     inkscape:window-width="1600"
     inkscape:window-height="837"
     inkscape:window-x="-8"
     inkscape:window-y="-8"
     inkscape:window-maximized="1"
     inkscape:current-layer="svg1" />
  <!--!Font Awesome Free 6.5.1 by @fontawesome - https://fontawesome.com License - https://fontawesome.com/license/free Copyright 2024 Fonticons, Inc.-->
  <g
     id="g1"
     inkscape:export-filename="..\Desktop\lb-logo.svg"
     inkscape:export-xdpi="96"
     inkscape:export-ydpi="96"
     transform="translate(193.29799,-152.56161)">
    <rect
       style="fill:#ffffff;fill-opacity:1;stroke-width:0.244284"
       id="rect1"
       width="64"
       height="64"
       x="-193.29799"
       y="152.56161"
       ry="4.2926831" />
    <path
       d="m -159.48549,166.44088 c -8.90391,0 -16.43711,5.83398 -18.99727,13.87695 3.80625,-1.92578 8.09961,-3.00195 12.65352,-3.00195 h 9.96875 c 0.99688,0 1.8125,0.81562 1.8125,1.8125 0,0.99687 -0.81562,1.8125 -1.8125,1.8125 h -1.8125 -8.15625 c 0,0 0,0 0,0 -1.88047,0 -3.7043,0.21523 -5.47148,0.61172 -2.93399,0.66836 -5.65274,1.85781 -8.08829,3.47773 0,0 0,0 0,0 -6.57031,4.38399 -10.90898,11.87188 -10.90898,20.3793 v 1.8125 c 0,1.50664 1.21211,2.71875 2.71875,2.71875 1.50664,0 2.71875,-1.21211 2.71875,-2.71875 v -1.8125 c 0,-5.5168 2.34492,-10.47852 6.09453,-13.95625 2.24297,8.55273 10.02539,14.8625 19.28047,14.8625 h 0.11328 c 14.96445,-0.0793 27.07422,-14.82852 27.07422,-33.01016 0,-4.82578 -0.84961,-9.41367 -2.39023,-13.54844 -0.29454,-0.78164 -1.43868,-0.74765 -1.83516,-0.0113 -2.12969,3.9875 -6.34375,6.69493 -11.18086,6.69493 z"
       id="path1"
       style="fill:#ff0990;fill-opacity:1;stroke-width:0.113281" />
  </g>
</svg>
